<svg width="23" height="23" viewBox="0 0 23 23" fill="none" xmlns="http://www.w3.org/2000/svg">
<path d="M9.66089 7.64746C9.66089 6.56836 10.5349 5.69434 11.6042 5.69434C12.6736 5.69434 13.5476 6.56836 13.5476 7.64746C13.5476 8.72168 12.6736 9.59082 11.6042 9.59082C10.5349 9.59082 9.66089 8.7168 9.66089 7.64746ZM22.5417 2.90625V20.0938C22.5417 21.3877 21.4919 22.4375 20.198 22.4375H3.0105C1.71655 22.4375 0.666748 21.3877 0.666748 20.0938V2.90625C0.666748 1.6123 1.71655 0.5625 3.0105 0.5625H20.198C21.4919 0.5625 22.5417 1.6123 22.5417 2.90625ZM7.64429 7.64746C7.64429 9.8252 9.42163 11.5977 11.6042 11.5977C13.7869 11.5977 15.5642 9.83008 15.5642 7.64746C15.5642 5.45996 13.7869 3.6875 11.6042 3.6875C9.42163 3.6875 7.64429 5.45508 7.64429 7.64746ZM16.1648 12.0762C15.9402 11.6318 15.3201 11.2559 14.4998 11.9004C14.4998 11.9004 13.3914 12.7793 11.6042 12.7793C9.81714 12.7793 8.70874 11.9004 8.70874 11.9004C7.88843 11.2559 7.26831 11.6318 7.0437 12.0762C6.65796 12.8623 7.09741 13.2334 8.08862 13.8828C8.93335 14.4248 10.1003 14.625 10.8523 14.7031L10.2224 15.333C9.33374 16.2119 8.48901 17.0664 7.89331 17.6621C7.03394 18.5215 8.41577 19.8984 9.28003 19.0586L11.6091 16.7197C12.4978 17.6084 13.3523 18.4629 13.9382 19.0586C14.7976 19.8984 16.1843 18.5361 15.3347 17.6621L13.0056 15.333L12.3708 14.7031C13.1277 14.625 14.28 14.415 15.115 13.8828C16.1111 13.2334 16.5457 12.8574 16.1648 12.0762Z" fill="black" fill-opacity="0.8"/>
</svg>
