<svg width="23" height="23" viewBox="0 0 23 23" fill="none" xmlns="http://www.w3.org/2000/svg">
<path d="M21.6583 0.483398H1.34159C0.852991 0.483398 0.458252 0.878138 0.458252 1.36673V21.6834C0.458252 22.172 0.852991 22.5667 1.34159 22.5667H21.6583C22.1468 22.5667 22.5416 22.172 22.5416 21.6834V1.36673C22.5416 0.878138 22.1468 0.483398 21.6583 0.483398ZM19.1076 6.92897H17.3437C15.9608 6.92897 15.693 7.58595 15.693 8.5521V10.6804H18.9944L18.5638 14.0122H15.693V22.5667H12.2508V14.015H9.37164V10.6804H12.2508V8.22361C12.2508 5.3721 13.9926 3.81798 16.5377 3.81798C17.7578 3.81798 18.804 3.90908 19.1104 3.95048V6.92897H19.1076Z" fill="black" fill-opacity="0.8"/>
</svg>
