<svg width="23" height="23" viewBox="0 0 23 23" fill="none" xmlns="http://www.w3.org/2000/svg">
<path d="M7.45939 11.6C7.45939 10.4498 7.86195 9.4722 8.66707 8.66707C9.4722 7.86195 10.4498 7.45939 11.6 7.45939C12.7502 7.45939 13.7278 7.86195 14.533 8.66707C15.3381 9.4722 15.7406 10.4498 15.7406 11.6C15.7406 12.7502 15.3381 13.7278 14.533 14.533C13.7278 15.3381 12.7502 15.7406 11.6 15.7406C10.4498 15.7406 9.4722 15.3381 8.66707 14.533C7.86195 13.7278 7.45939 12.7502 7.45939 11.6ZM22.6417 10.2198V19.8813C22.6417 20.6433 22.3721 21.2938 21.833 21.833C21.2938 22.3721 20.6433 22.6417 19.8813 22.6417H3.31877C2.55678 22.6417 1.90621 22.3721 1.36707 21.833C0.827922 21.2938 0.55835 20.6433 0.55835 19.8813V3.31877C0.55835 2.55678 0.827922 1.90621 1.36707 1.36707C1.90621 0.827922 2.55678 0.55835 3.31877 0.55835H19.8813C20.6433 0.55835 21.2938 0.827922 21.833 1.36707C22.3721 1.90621 22.6417 2.55678 22.6417 3.31877V7.45939H17.1208C16.4739 6.61114 15.6688 5.93901 14.7055 5.44299C13.7422 4.94698 12.7071 4.69897 11.6 4.69897C10.493 4.69897 9.45782 4.94698 8.49455 5.44299C7.53128 5.93901 6.72616 6.61114 6.07918 7.45939H0.55835V10.2198H4.82837C4.74211 10.6799 4.69897 11.1399 4.69897 11.6C4.69897 12.8508 5.00808 14.0046 5.6263 15.0613C6.24452 16.118 7.08199 16.9555 8.13871 17.5737C9.19543 18.1919 10.3492 18.5011 11.6 18.5011C12.8508 18.5011 14.0046 18.1919 15.0613 17.5737C16.118 16.9555 16.9555 16.118 17.5737 15.0613C18.1919 14.0046 18.5011 12.8508 18.5011 11.6C18.5011 11.1399 18.4579 10.6799 18.3717 10.2198H22.6417Z" fill="black" fill-opacity="0.8"/>
</svg>
