<svg width="23" height="23" viewBox="0 0 23 23" fill="none" xmlns="http://www.w3.org/2000/svg">
<path d="M20.9792 0.5625H2.22437C1.36499 0.5625 0.666748 1.27051 0.666748 2.13965V20.8604C0.666748 21.7295 1.36499 22.4375 2.22437 22.4375H20.9792C21.8386 22.4375 22.5417 21.7295 22.5417 20.8604V2.13965C22.5417 1.27051 21.8386 0.5625 20.9792 0.5625ZM7.27808 19.3125H4.03589V8.87305H7.28296V19.3125H7.27808ZM5.65698 7.44727C4.61694 7.44727 3.7771 6.60254 3.7771 5.56738C3.7771 4.53223 4.61694 3.6875 5.65698 3.6875C6.69214 3.6875 7.53687 4.53223 7.53687 5.56738C7.53687 6.60742 6.69702 7.44727 5.65698 7.44727ZM19.4314 19.3125H16.1892V14.2344C16.1892 13.0234 16.1648 11.4658 14.5046 11.4658C12.8152 11.4658 12.5564 12.7842 12.5564 14.1465V19.3125H9.31421V8.87305H12.4246V10.2988H12.4685C12.9031 9.47852 13.9626 8.61426 15.5398 8.61426C18.821 8.61426 19.4314 10.7773 19.4314 13.5898V19.3125Z" fill="black" fill-opacity="0.8"/>
</svg>
