<svg width="23" height="23" viewBox="0 0 23 23" fill="none" xmlns="http://www.w3.org/2000/svg">
<path d="M22.75 20.25V2.75C22.75 1.375 21.6213 0.25 20.2438 0.25H2.75625C1.31875 0.25 0.25 1.31625 0.25 2.75V20.25C0.25 21.685 1.31875 22.75 2.75625 22.75H20.2438C20.9071 22.749 21.543 22.4855 22.0126 22.0171C22.4823 21.5486 22.7474 20.9133 22.75 20.25ZM17.98 13.5088C17.98 13.5088 19.395 14.905 19.7437 15.5525C19.7537 15.5662 19.7575 15.5788 19.7612 15.5837C19.9025 15.8212 19.9388 16.0087 19.8675 16.1462C19.75 16.375 19.35 16.49 19.2137 16.5H16.715C16.54 16.5 16.1775 16.455 15.7375 16.1512C15.4 15.9162 15.0663 15.5275 14.7413 15.1487C14.2563 14.5862 13.8363 14.0988 13.4137 14.0988C13.3602 14.0986 13.3069 14.1075 13.2562 14.125C12.935 14.2275 12.5275 14.6838 12.5275 15.9025C12.5275 16.2838 12.2275 16.5013 12.015 16.5013H10.87C10.48 16.5013 8.44875 16.365 6.65 14.4663C4.4425 12.1413 2.46 7.4775 2.4425 7.43625C2.3175 7.135 2.57625 6.97125 2.8575 6.97125H5.3825C5.72125 6.97125 5.83 7.17625 5.9075 7.36C5.995 7.56875 6.325 8.41125 6.865 9.35875C7.74375 10.9 8.285 11.5275 8.71625 11.5275C8.79689 11.527 8.87607 11.506 8.94625 11.4662C9.51 11.155 9.405 9.145 9.38 8.73C9.38 8.65125 9.37875 7.83125 9.09125 7.4375C8.88375 7.1525 8.5325 7.04375 8.32 7.0025C8.40665 6.8831 8.52067 6.78623 8.6525 6.72C9.03875 6.5275 9.735 6.5 10.4275 6.5H10.8125C11.5637 6.51 11.7587 6.55875 12.03 6.6275C12.5787 6.75875 12.59 7.115 12.5413 8.3275C12.5275 8.6725 12.5125 9.06375 12.5125 9.5225C12.5125 9.62125 12.5087 9.73 12.5087 9.8425C12.4913 10.4625 12.4712 11.1638 12.9087 11.4513C12.9654 11.4867 13.0307 11.5057 13.0975 11.5063C13.25 11.5063 13.7062 11.5062 14.9425 9.385C15.4862 8.44875 15.905 7.34375 15.9338 7.26125C15.9774 7.17205 16.0407 7.09386 16.1187 7.0325C16.1828 6.99924 16.2541 6.98249 16.3263 6.98375H19.295C19.62 6.98375 19.84 7.0325 19.8813 7.15625C19.9525 7.355 19.8675 7.96125 18.5112 9.79375L17.9075 10.5938C16.6775 12.2037 16.6775 12.2863 17.98 13.5088Z" fill="black" fill-opacity="0.8"/>
</svg>
