<svg width="23" height="23" viewBox="0 0 23 23" fill="none" xmlns="http://www.w3.org/2000/svg">
<path d="M13.4656 17.3755V15.1187C13.4656 14.6395 13.3267 14.3999 13.0488 14.3999C12.8859 14.3999 12.7277 14.4766 12.5744 14.6299V17.8499C12.7277 18.0032 12.8859 18.0799 13.0488 18.0799C13.3267 18.0799 13.4656 17.8451 13.4656 17.3755ZM16.1106 15.6218H17.0594V15.1331C17.0594 14.6443 16.9012 14.3999 16.585 14.3999C16.2687 14.3999 16.1106 14.6443 16.1106 15.1331V15.6218ZM7.90256 11.7981V12.8043H6.75257V18.8849H5.68883V12.8043H4.56759V11.7981H7.90256ZM10.7919 13.6093V18.8849H9.8288V18.3099C9.45505 18.7412 9.09089 18.9568 8.7363 18.9568C8.42006 18.9568 8.21881 18.8226 8.13256 18.5543C8.07506 18.3914 8.04631 18.1326 8.04631 17.778V13.6093H8.99505V17.4905C8.99505 17.7205 8.99984 17.8451 9.00943 17.8643C9.01901 18.008 9.09089 18.0799 9.22505 18.0799C9.41672 18.0799 9.61796 17.9314 9.8288 17.6343V13.6093H10.7919ZM14.4144 15.2049V17.3037C14.4144 17.802 14.3808 18.1518 14.3138 18.353C14.1988 18.7555 13.9448 18.9568 13.5519 18.9568C13.2165 18.9568 12.8906 18.7603 12.5744 18.3674V18.8849H11.6113V11.7981H12.5744V14.1124C12.8811 13.7291 13.2069 13.5374 13.5519 13.5374C13.9448 13.5374 14.1988 13.7387 14.3138 14.1412C14.3808 14.3424 14.4144 14.697 14.4144 15.2049ZM18.0225 17.0593V17.1887C18.0225 17.4666 18.0129 17.6726 17.9937 17.8068C17.965 18.0176 17.8931 18.2093 17.7781 18.3818C17.5194 18.7651 17.136 18.9568 16.6281 18.9568C16.1298 18.9568 15.7417 18.7747 15.4638 18.4105C15.2625 18.1518 15.1619 17.7397 15.1619 17.1743V15.3199C15.1619 14.7545 15.2577 14.3424 15.4494 14.0837C15.7273 13.7195 16.1106 13.5374 16.5994 13.5374C17.0881 13.5374 17.4619 13.7195 17.7206 14.0837C17.9219 14.3616 18.0225 14.7737 18.0225 15.3199V16.4124H16.1106V17.3468C16.1106 17.8355 16.2735 18.0799 16.5994 18.0799C16.8294 18.0799 16.9731 17.9553 17.0306 17.7062C17.0306 17.6966 17.033 17.663 17.0378 17.6055C17.0426 17.548 17.045 17.469 17.045 17.3684V17.0593H18.0225ZM11.5394 5.21439V7.45687C11.5394 7.94562 11.3861 8.18999 11.0794 8.18999C10.7727 8.18999 10.6194 7.94562 10.6194 7.45687V5.21439C10.6194 4.71606 10.7727 4.4669 11.0794 4.4669C11.3861 4.4669 11.5394 4.71606 11.5394 5.21439ZM19.2012 15.4637C19.2012 13.7674 19.1102 12.5216 18.9281 11.7262C18.8323 11.3046 18.6262 10.9524 18.31 10.6697C17.9937 10.387 17.6296 10.2216 17.2175 10.1737C15.9142 10.03 13.94 9.9581 11.295 9.9581C8.65964 9.9581 6.69028 10.03 5.38696 10.1737C4.96529 10.2216 4.59873 10.387 4.28728 10.6697C3.97582 10.9524 3.77218 11.3046 3.67634 11.7262C3.48468 12.56 3.38885 13.8058 3.38885 15.4637C3.38885 17.1503 3.48468 18.3962 3.67634 19.2012C3.77218 19.6132 3.97582 19.963 4.28728 20.2505C4.59873 20.538 4.9605 20.7057 5.37258 20.7536C6.68549 20.8974 8.65964 20.9693 11.295 20.9693C13.9304 20.9693 15.9046 20.8974 17.2175 20.7536C17.6296 20.7057 17.9913 20.538 18.3028 20.2505C18.6142 19.963 18.8179 19.6132 18.9137 19.2012C19.1054 18.3962 19.2012 17.1503 19.2012 15.4637ZM8.34818 6.10563L9.64192 1.85067H8.56381L7.83069 4.65377L7.06882 1.85067H5.94758C6.01466 2.07108 6.12487 2.4017 6.2782 2.84253L6.6232 3.8344C6.95861 4.82148 7.17903 5.57855 7.28444 6.10563V8.99499H8.34818V6.10563ZM12.5025 7.27V5.40126C12.5025 4.84543 12.4019 4.42856 12.2007 4.15065C11.9227 3.78648 11.549 3.6044 11.0794 3.6044C10.5907 3.6044 10.2169 3.78648 9.95817 4.15065C9.75692 4.42856 9.6563 4.84543 9.6563 5.40126V7.27C9.6563 7.82583 9.75692 8.2427 9.95817 8.52061C10.2169 8.88478 10.5907 9.06686 11.0794 9.06686C11.549 9.06686 11.9227 8.88478 12.2007 8.52061C12.4019 8.26187 12.5025 7.84499 12.5025 7.27ZM15.1044 8.99499H16.0675V3.67628H15.1044V7.74437C14.8935 8.04145 14.6923 8.18999 14.5006 8.18999C14.3569 8.18999 14.2802 8.11333 14.2706 7.95999C14.2611 7.94083 14.2563 7.81624 14.2563 7.58625V3.67628H13.2931V7.88812C13.2931 8.2427 13.3219 8.50624 13.3794 8.67874C13.4848 8.93749 13.6909 9.06686 13.9975 9.06686C14.3425 9.06686 14.7115 8.85124 15.1044 8.41999V8.99499ZM22.3349 4.62502V18.4249C22.3349 19.5653 22.3312 21.0188 21.5214 21.8285C20.7116 22.6383 19.3354 22.5649 18.195 22.5649H4.39509C3.25468 22.5649 1.76384 22.6383 0.954051 21.8285C0.144265 21.0188 0.255122 19.5653 0.255122 18.4249V4.62502C0.255122 3.48461 0.144265 2.03049 0.954051 1.22071C1.76384 0.410923 3.25468 0.485052 4.39509 0.485052H18.195C19.3354 0.485052 20.7116 0.410923 21.5214 1.22071C22.3312 2.03049 22.3349 3.48461 22.3349 4.62502Z" fill="black" fill-opacity="0.8"/>
</svg>
