<svg width="73" height="77" viewBox="0 0 73 77" fill="none" xmlns="http://www.w3.org/2000/svg">
<path d="M39.127 64.9164H1.95748V21.9075L21.1575 2.83056H56.7267V23.9998C56.7267 24.4921 57.0959 24.9844 57.7113 24.9844C58.3267 24.9844 58.6959 24.6152 58.6959 23.9998V1.84594C58.6959 1.35364 58.3267 0.861328 57.7113 0.861328H20.7883C20.5421 0.861328 20.2959 0.984405 20.1729 1.10748L0.357482 20.9229C0.234405 21.0459 0.111328 21.2921 0.111328 21.5382V65.778C0.111328 66.2703 0.480559 66.7626 1.09594 66.7626H39.127C39.6193 66.7626 40.1116 66.3934 40.1116 65.778C40.1116 65.1626 39.6193 64.9164 39.127 64.9164Z" fill="black" fill-opacity="0.8"/>
<path d="M21.6496 21.5384V6.76916C21.6496 6.27685 21.2803 5.78455 20.6649 5.78455C20.0496 5.78455 19.6803 6.15378 19.6803 6.76916V20.6769H6.01879C5.52649 20.6769 5.03418 21.0461 5.03418 21.6615C5.03418 22.2769 5.40341 22.6461 6.01879 22.6461H20.788C21.2803 22.523 21.6496 22.0307 21.6496 21.5384Z" fill="black" fill-opacity="0.8"/>
<path d="M49.0961 30.2922H8.48071C7.9884 30.2922 7.49609 30.6615 7.49609 31.2769C7.49609 31.8922 7.86532 32.2615 8.48071 32.2615H49.0961C49.5884 32.2615 50.0807 31.8922 50.0807 31.2769C50.0807 30.6615 49.5884 30.2922 49.0961 30.2922Z" fill="black" fill-opacity="0.8"/>
<path d="M49.9574 39.2461C49.9574 38.7538 49.5882 38.2615 48.9728 38.2615H8.35742C7.86511 38.2615 7.3728 38.6307 7.3728 39.2461C7.3728 39.8615 7.74203 40.2307 8.35742 40.2307H48.9728C49.5882 40.2307 49.9574 39.7384 49.9574 39.2461Z" fill="black" fill-opacity="0.8"/>
<path d="M8.48071 46.2307C7.9884 46.2307 7.49609 46.5999 7.49609 47.2153C7.49609 47.8307 7.86532 48.1999 8.48071 48.1999H41.7115C42.2038 48.1999 42.6961 47.8307 42.6961 47.2153C42.6961 46.5999 42.3269 46.2307 41.7115 46.2307H8.48071Z" fill="black" fill-opacity="0.8"/>
<path d="M8.48462 54.2C7.99231 54.2 7.5 54.5692 7.5 55.1846C7.5 55.8 7.86923 56.1692 8.48462 56.1692H38.5866C39.0789 56.1692 39.5712 55.8 39.5712 55.1846C39.5712 54.5692 39.2019 54.2 38.5866 54.2H8.48462Z" fill="black" fill-opacity="0.8"/>
<path d="M49.9572 6.76916C49.9572 6.27685 49.588 5.78455 48.9726 5.78455H34.2034C33.7111 5.78455 33.2188 6.15378 33.2188 6.76916V23.9999C33.2188 24.4922 33.588 24.9846 34.2034 24.9846H48.9726C49.4649 24.9846 49.9572 24.6153 49.9572 23.9999V6.76916ZM48.1111 23.1384H35.188V7.75378H48.1111V23.1384Z" fill="black" fill-opacity="0.8"/>
<path fill-rule="evenodd" clip-rule="evenodd" d="M59.9683 66.5917L59.9919 66.5697C61.1348 65.5029 62.5553 64.9375 64.064 64.9375C65.6025 64.9375 66.8795 63.6883 66.8795 62.0682C66.8795 60.5504 67.5068 59.0532 68.5564 58.0036C69.6572 56.9028 69.6572 55.0709 68.5564 53.97C67.4393 52.8529 66.8795 51.4034 66.8795 49.9054C66.8795 48.3393 65.6026 47.0361 64.0102 47.0361C62.4924 47.0361 60.9952 46.4088 59.9456 45.3592C58.8448 44.2584 57.0129 44.2584 55.9121 45.3592C54.7949 46.4763 53.3454 47.0361 51.8474 47.0361C50.2813 47.0361 48.9781 48.3131 48.9781 49.9054C48.9781 51.4232 48.3508 52.9205 47.3012 53.97C46.7242 54.5471 46.4487 55.2073 46.4487 55.9868C46.4487 56.7239 46.7324 57.4348 47.3012 58.0036C48.4183 59.1207 48.9781 60.5702 48.9781 62.0682C48.9781 63.6344 50.2551 64.9375 51.8474 64.9375C53.3652 64.9375 54.8625 65.5648 55.9121 66.6144C56.4809 67.1832 57.1917 67.4669 57.9288 67.4669C58.6234 67.4669 59.3847 67.1753 59.9456 66.6144L59.9683 66.5917ZM68.7462 62.0682C68.7462 64.7053 66.6473 66.8042 64.064 66.8042C63.0415 66.8042 62.0728 67.1809 61.2655 67.9343C60.3506 68.8492 59.1128 69.3336 57.9288 69.3336C56.691 69.3336 55.507 68.8492 54.5921 67.9343C53.8925 67.2347 52.87 66.8042 51.8474 66.8042C49.2104 66.8042 47.1115 64.6515 47.1115 62.0682C47.1115 61.0457 46.7347 60.077 45.9813 59.3235C45.0664 58.4086 44.582 57.2246 44.582 55.9868C44.582 54.6952 45.0664 53.565 45.9813 52.6501C46.6809 51.9505 47.1115 50.9279 47.1115 49.9054C47.1115 47.2683 49.2642 45.1695 51.8474 45.1695C52.87 45.1695 53.8387 44.7927 54.5921 44.0393C56.4219 42.2095 59.4357 42.2095 61.2655 44.0393C61.9651 44.7389 62.9877 45.1695 64.0102 45.1695C66.6473 45.1695 68.7462 47.3222 68.7462 49.9054C68.7462 50.9279 69.1229 51.8967 69.8763 52.6501C71.7062 54.4799 71.7062 57.4937 69.8763 59.3235C69.1767 60.0231 68.7462 61.0457 68.7462 62.0682Z" fill="black" fill-opacity="0.8"/>
<path fill-rule="evenodd" clip-rule="evenodd" d="M68.4604 67.1603L71.0463 72.6552L72.3284 75.4262L65.537 72.9516L64.1224 76.8419L62.9079 79.5573L61.6577 76.9404L58.9668 71.1819L60.6579 70.3917L62.8083 74.9935L64.4207 70.5594L68.7353 72.1284L66.7714 67.9552L68.4604 67.1603Z" fill="black" fill-opacity="0.8"/>
<path fill-rule="evenodd" clip-rule="evenodd" d="M56.0183 71.4388L53.2332 76.8354L51.8154 79.5395L49.6441 72.6452L45.6966 73.8913L42.803 74.5808L44.118 71.9959L47.0483 66.3554L48.7047 67.216L46.3631 71.7234L50.8624 70.3032L52.2443 74.6814L54.3595 70.5828L56.0183 71.4388Z" fill="black" fill-opacity="0.8"/>
<path fill-rule="evenodd" clip-rule="evenodd" d="M65.653 52.1742C65.3997 51.5946 65.084 51.0496 64.714 50.5473C63.8906 49.4296 62.7981 48.5239 61.5255 47.922C59.6813 47.0498 57.5836 46.8747 55.6202 47.4292C53.6568 47.9836 51.9606 49.2301 50.845 50.9382C49.7294 52.6464 49.27 54.7006 49.5515 56.7212C49.8331 58.7418 50.8367 60.5922 52.3767 61.9303C53.9168 63.2683 55.8892 64.0036 57.9293 64.0002C59.9695 63.9968 61.9394 63.2549 63.475 61.9117C64.5345 60.9849 65.3378 59.815 65.8243 58.5147C66.0424 57.9316 66.1969 57.3223 66.2822 56.6969C66.2823 56.6957 66.2825 56.6944 66.2827 56.6932L64.3767 56.4341C64.1645 57.9952 63.3944 59.4267 62.2086 60.4639C61.0228 61.5012 59.5016 62.0741 57.9261 62.0768C56.3507 62.0794 54.8275 61.5116 53.6383 60.4783C52.449 59.445 51.674 58.0161 51.4566 56.4558C51.2391 54.8954 51.594 53.3091 52.4554 51.99C53.3169 50.671 54.6268 49.7084 56.1429 49.2802C57.6591 48.8521 59.279 48.9873 60.7032 49.6608C62.1274 50.3344 63.2596 51.5008 63.8905 52.9444L65.653 52.1742Z" fill="black" fill-opacity="0.8"/>
</svg>
