<svg width="80" height="71" viewBox="0 0 80 71" fill="none" xmlns="http://www.w3.org/2000/svg">
<path d="M50.1692 58.4615C56.0769 58.4615 61.7385 56.7385 66.6615 53.4154L78.1077 58.4615C78.2308 58.4615 78.3539 58.5846 78.4769 58.5846C78.7231 58.5846 78.9692 58.4615 79.0923 58.3385C79.3385 58.0923 79.4615 57.7231 79.3385 57.3539L75.2769 44.1846C77.9846 39.6308 79.3385 34.5846 79.3385 29.2923C79.3385 13.1692 66.1692 0 50.0462 0C33.9231 0 21 13.0462 21 29.1692C21 45.2923 34.0462 58.4615 50.1692 58.4615ZM50.1692 1.84615C65.3077 1.84615 77.6154 14.1538 77.6154 29.2923C77.6154 34.3385 76.2615 39.2615 73.5539 43.5692C73.4308 43.8154 73.4308 44.0615 73.4308 44.3077L77 55.8769L66.9077 51.4462C66.6615 51.3231 66.2923 51.3231 66.0462 51.5692C61.3692 54.8923 55.9538 56.6154 50.1692 56.6154C35.0308 56.6154 22.7231 44.3077 22.7231 29.1692C22.7231 14.0308 35.0308 1.84615 50.1692 1.84615Z" fill="black" fill-opacity="0.8"/>
<path d="M36.3082 23.3689C33.1082 23.3689 30.5236 25.9535 30.5236 29.2766C30.5236 32.5997 33.1082 35.1843 36.3082 35.1843C39.5082 35.1843 42.2159 32.5997 42.2159 29.2766C42.2159 25.9535 39.5082 23.3689 36.3082 23.3689ZM36.3082 33.215C34.0928 33.215 32.3697 31.3689 32.3697 29.1535C32.3697 26.9381 34.2159 25.092 36.3082 25.092C38.4005 25.092 40.3697 26.9381 40.3697 29.1535C40.3697 31.3689 38.5236 33.215 36.3082 33.215Z" fill="black" fill-opacity="0.8"/>
<path d="M45.2926 29.1538C45.2926 32.3538 47.8772 35.0615 51.2003 35.0615C54.4003 35.0615 56.9849 32.4769 56.9849 29.1538C56.9849 25.8307 54.4003 23.2461 51.2003 23.2461C47.8772 23.3692 45.2926 25.9538 45.2926 29.1538ZM51.0772 25.2153C53.2926 25.2153 55.0157 27.0615 55.0157 29.2769C55.0157 31.4922 53.1695 33.3384 51.0772 33.3384C48.9849 33.3384 47.0157 31.4922 47.0157 29.2769C47.0157 27.0615 48.8618 25.2153 51.0772 25.2153Z" fill="black" fill-opacity="0.8"/>
<path d="M65.8464 35.0615C69.0464 35.0615 71.7541 32.4769 71.7541 29.1538C71.7541 25.8307 69.1695 23.2461 65.8464 23.2461C62.5233 23.2461 59.9387 25.8307 59.9387 29.1538C59.9387 32.4769 62.6464 35.0615 65.8464 35.0615ZM65.8464 25.2153C68.0618 25.2153 69.908 27.0615 69.908 29.2769C69.908 31.4922 68.0618 33.3384 65.8464 33.3384C63.631 33.3384 61.7849 31.4922 61.7849 29.2769C61.7849 27.0615 63.631 25.2153 65.8464 25.2153Z" fill="black" fill-opacity="0.8"/>
<path d="M48.6156 61.6462C43.5694 66.3231 37.0463 68.7846 30.154 68.7846C24.4925 68.7846 18.954 67.0615 14.2771 63.7385C14.031 63.4923 13.6617 63.4923 13.4156 63.6154L3.32326 68.0462L6.89249 56.4769C7.01557 56.2308 6.89249 55.9846 6.76942 55.7385C4.1848 51.4308 2.70788 46.5077 2.70788 41.4615C2.70788 30.1385 9.47711 20.1692 19.9386 15.9846C20.431 15.7385 20.6771 15.2462 20.431 14.7539C20.1848 14.2615 19.6925 14.0154 19.2002 14.2615C8.00019 18.6923 0.738647 29.4 0.738647 41.4615C0.738647 46.7539 2.09249 51.9231 4.80019 56.3539L0.984801 69.5231C0.861724 69.8923 0.984801 70.2615 1.23096 70.5077C1.35403 70.6308 1.60019 70.7539 1.84634 70.7539C1.96942 70.7539 2.09249 70.7539 2.21557 70.6308L13.6617 65.5846C18.5848 68.9077 24.2463 70.6308 30.154 70.6308C37.4156 70.6308 44.431 67.9231 49.8463 63C50.2156 62.6308 50.2156 62.0154 49.8463 61.6462C49.6002 61.4 48.9848 61.4 48.6156 61.6462Z" fill="black" fill-opacity="0.8"/>
</svg>
