<svg width="80" height="67" viewBox="0 0 80 67" fill="none" xmlns="http://www.w3.org/2000/svg">
<path d="M68.5539 16.4615L73.7231 11.2922C75.077 9.93838 75.077 7.84607 73.7231 6.49222L68.5539 1.32299C68.1847 0.953764 67.8154 0.707611 67.4462 0.584534C67.077 0.461457 66.5847 0.338379 66.2154 0.338379C65.3539 0.338379 64.4923 0.70761 63.877 1.32299L58.7077 6.49222L13.2923 51.6614C13.1693 51.7845 13.1693 51.9076 13.0462 52.0307L8.61542 65.0768C8.49235 65.4461 8.61542 65.8153 8.86158 66.0615C9.10773 66.1845 9.35388 66.3076 9.60004 66.3076C9.72311 66.3076 9.84619 66.3076 9.84619 66.3076L22.8923 61.9999C23.0154 61.9999 23.1385 61.8768 23.2616 61.7538L68.5539 16.4615ZM22.6462 59.7845L19.5693 56.7076L63.5077 12.7691L66.5847 15.8461L22.6462 59.7845ZM14.277 53.9999L17.6 57.323L20.9231 60.6461L17.6 61.7538L13.1693 57.323L14.277 53.9999ZM64.9847 2.55376C65.6 1.93838 66.5847 1.93838 67.2 2.55376L72.3693 7.72299C72.9847 8.33838 72.9847 9.323 72.3693 9.93838L67.8154 14.4922L64.1231 10.7999L60.4308 7.10761L64.9847 2.55376ZM59.2 8.33838L62.277 11.4153L18.2154 55.3538L15.1385 52.2768L59.2 8.33838ZM12.5539 59.2922L15.6308 62.3691L10.9539 63.9691L12.5539 59.2922Z" fill="black" fill-opacity="0.8"/>
<path d="M78.154 25.3228H64.2463C63.754 25.3228 63.2617 25.692 63.2617 26.3074C63.2617 26.9228 63.6309 27.292 64.2463 27.292H78.154C78.6463 27.292 79.1386 26.9228 79.1386 26.3074C79.1386 25.692 78.6463 25.3228 78.154 25.3228Z" fill="black" fill-opacity="0.8"/>
<path d="M1.84619 39.4766H20.677C21.1693 39.4766 21.6616 39.1074 21.6616 38.492C21.6616 37.8766 21.2923 37.5074 20.677 37.5074H1.84619C1.35388 37.5074 0.861572 37.8766 0.861572 38.492C0.861572 39.1074 1.35388 39.4766 1.84619 39.4766Z" fill="black" fill-opacity="0.8"/>
<path d="M78.1541 37.6302H51.9387C51.4464 37.6302 50.9541 37.9995 50.9541 38.6149C50.9541 39.2302 51.3233 39.5995 51.9387 39.5995H78.1541C78.6464 39.5995 79.1387 39.2302 79.1387 38.6149C79.1387 37.9995 78.6464 37.6302 78.1541 37.6302Z" fill="black" fill-opacity="0.8"/>
<path d="M78.1542 49.938H39.6311C39.1388 49.938 38.6465 50.3072 38.6465 50.9226C38.6465 51.538 39.0157 51.9072 39.6311 51.9072H78.1542C78.6465 51.9072 79.1388 51.538 79.1388 50.9226C79.1388 50.3072 78.6465 49.938 78.1542 49.938Z" fill="black" fill-opacity="0.8"/>
<path d="M24 2.55334H57.6C58.0923 2.55334 58.5846 2.18411 58.5846 1.56872C58.5846 0.953336 58.2154 0.584106 57.6 0.584106H24C23.5077 0.584106 23.0154 0.953336 23.0154 1.56872C23.0154 2.18411 23.5077 2.55334 24 2.55334Z" fill="black" fill-opacity="0.8"/>
<path d="M15.1794 14.8617H41.0256C41.5179 14.8617 42.0102 14.4925 42.0102 13.8771C42.0102 13.2617 41.641 12.8925 41.0256 12.8925H15.1794C14.6871 12.8925 14.1948 13.2617 14.1948 13.8771C14.1948 14.4925 14.6871 14.8617 15.1794 14.8617Z" fill="black" fill-opacity="0.8"/>
<path d="M1.84619 27.1691H32.9847C33.477 27.1691 33.9693 26.7998 33.9693 26.1844C33.9693 25.5691 33.6 25.1998 32.9847 25.1998H1.84619C1.35388 25.1998 0.861572 25.5691 0.861572 26.1844C0.861572 26.7998 1.35388 27.1691 1.84619 27.1691Z" fill="black" fill-opacity="0.8"/>
<path d="M57.2307 62.246H27.323C26.8307 62.246 26.3384 62.6153 26.3384 63.2306C26.3384 63.846 26.7076 64.2153 27.323 64.2153H57.2307C57.723 64.2153 58.2153 63.846 58.2153 63.2306C58.2153 62.6153 57.723 62.246 57.2307 62.246Z" fill="black" fill-opacity="0.8"/>
</svg>
