<svg width="70" height="80" viewBox="0 0 70 80" fill="none" xmlns="http://www.w3.org/2000/svg">
<path d="M58.3847 45.2921H57.7693C58.7539 43.569 59.3693 41.4767 59.3693 40.1229C59.3693 36.9229 56.6616 34.2152 53.4616 34.2152C50.2616 34.2152 47.5539 36.9229 47.5539 40.1229C47.5539 41.4767 48.1693 43.569 49.1539 45.2921H48.5385C47.3078 45.2921 46.2001 45.6614 45.2155 46.2767C44.3539 44.1844 42.2616 42.8306 39.9231 42.8306H39.3078C40.2924 41.1075 40.9078 39.0152 40.9078 37.6614C40.9078 34.4614 38.2001 31.7537 35.0001 31.7537C31.8001 31.7537 29.0924 34.4614 29.0924 37.6614C29.0924 39.0152 29.7078 41.1075 30.6924 42.8306H30.077C27.7385 42.8306 25.6462 44.3075 24.7847 46.2767C23.8001 45.6614 22.6924 45.2921 21.4616 45.2921H20.8462C21.8308 43.569 22.4462 41.4767 22.4462 40.1229C22.4462 36.9229 19.7385 34.2152 16.5385 34.2152C13.3385 34.2152 10.6308 36.9229 10.6308 40.1229C10.6308 41.4767 11.2462 43.569 12.2308 45.2921H11.6155C8.41546 45.2921 5.70776 47.8767 5.70776 51.1998V64.7383C5.70776 65.2306 6.07699 65.7229 6.69238 65.7229H10.6308V78.3998C10.6308 78.8921 11.0001 79.3844 11.6155 79.3844H21.5847C22.077 79.3844 22.5693 79.0152 22.5693 78.3998V53.7844C22.5693 53.2921 22.2001 52.7998 21.5847 52.7998C20.9693 52.7998 20.6001 53.169 20.6001 53.7844V77.5383H17.4001V62.1537C17.4001 61.6614 17.0308 61.169 16.4155 61.169C15.8001 61.169 15.4308 61.5383 15.4308 62.1537V77.2921H12.2308V53.5383C12.2308 53.046 11.8616 52.5537 11.2462 52.5537C10.6308 52.5537 10.2616 52.9229 10.2616 53.5383V63.7537H7.30776V51.0767C7.30776 48.8614 9.15392 47.0152 11.3693 47.0152H13.3385C14.2001 47.8767 15.1847 48.369 16.2924 48.369C17.4001 48.369 18.3847 47.8767 19.2462 47.0152H21.2155C22.3231 47.0152 23.3078 47.5075 24.0462 48.246C24.0462 48.369 24.0462 48.4921 24.0462 48.6152V60.9229C24.0462 61.4152 24.4155 61.9075 25.0308 61.9075H28.9693V77.046C28.9693 77.5383 29.3385 78.0306 29.9539 78.0306H39.9231C40.4155 78.0306 40.9078 77.6614 40.9078 77.046V61.9075H44.8462C45.3385 61.9075 45.8308 61.5383 45.8308 60.9229V48.6152C45.8308 48.4921 45.8308 48.369 45.8308 48.246C46.5693 47.5075 47.5539 47.0152 48.6616 47.0152H50.6308C51.4924 47.8767 52.477 48.369 53.5847 48.369C54.6924 48.369 55.677 47.8767 56.5385 47.0152H58.5078C60.7231 47.0152 62.5693 48.8614 62.5693 51.0767V63.7537H59.6155V53.5383C59.6155 53.046 59.2462 52.5537 58.6308 52.5537C58.0155 52.5537 57.6462 52.9229 57.6462 53.5383V77.2921H54.4462V62.1537C54.4462 61.6614 54.077 61.169 53.4616 61.169C52.8462 61.169 52.477 61.5383 52.477 62.1537V77.2921H49.277V53.5383C49.277 53.046 48.9078 52.5537 48.2924 52.5537C47.677 52.5537 47.3078 52.9229 47.3078 53.5383V78.1537C47.3078 78.646 47.677 79.1383 48.2924 79.1383H58.2616C58.7539 79.1383 59.2462 78.769 59.2462 78.1537V65.5998H63.1847C63.677 65.5998 64.1693 65.2306 64.1693 64.6152V51.0767C64.2924 47.8767 61.5847 45.2921 58.3847 45.2921ZM16.5385 36.0614C18.7539 36.0614 20.6001 37.9075 20.6001 40.1229C20.6001 41.7229 19.6155 44.1844 18.3847 45.5383C18.0155 45.9075 17.6462 46.2767 17.1539 46.5229C17.1539 46.5229 17.1539 46.5229 17.0308 46.5229C16.9078 46.5229 16.6616 46.646 16.5385 46.646C16.4155 46.646 16.1693 46.646 16.0462 46.5229C16.0462 46.5229 16.0462 46.5229 15.9231 46.5229C15.4308 46.2767 14.9385 45.9075 14.6924 45.5383C13.4616 44.1844 12.477 41.7229 12.477 40.1229C12.477 37.7844 14.3231 36.0614 16.5385 36.0614ZM35.0001 33.5998C37.2155 33.5998 39.0616 35.446 39.0616 37.6614C39.0616 39.2614 38.077 41.7229 36.8462 43.0767C36.477 43.446 36.1078 43.8152 35.6155 44.0614C35.6155 44.0614 35.6155 44.0614 35.4924 44.0614C35.3693 44.0614 35.1231 44.1844 35.0001 44.1844C34.877 44.1844 34.6308 44.1844 34.5078 44.0614C34.5078 44.0614 34.5078 44.0614 34.3847 44.0614C33.8924 43.8152 33.4001 43.446 33.1539 43.0767C31.9231 41.7229 30.9385 39.2614 30.9385 37.6614C30.9385 35.3229 32.7847 33.5998 35.0001 33.5998ZM43.9847 60.0614H41.0308V53.5383C41.0308 53.046 40.6616 52.5537 40.0462 52.5537C39.4308 52.5537 39.0616 52.9229 39.0616 53.5383V76.0614H35.8616V59.6921C35.8616 59.1998 35.4924 58.7075 34.877 58.7075C34.2616 58.7075 33.8924 59.0767 33.8924 59.6921V76.0614H30.6924V53.5383C30.6924 53.046 30.3231 52.5537 29.7078 52.5537C29.0924 52.5537 28.7232 52.9229 28.7232 53.5383V60.0614H25.7693V48.6152C25.7693 46.3998 27.6155 44.5537 29.8308 44.5537H31.8001C32.6616 45.4152 33.6462 45.9075 34.7539 45.9075C35.8616 45.9075 36.8462 45.4152 37.7078 44.5537H39.677C41.8924 44.5537 43.7385 46.3998 43.7385 48.6152V60.0614H43.9847ZM53.4616 36.0614C55.677 36.0614 57.5231 37.9075 57.5231 40.1229C57.5231 41.7229 56.5385 44.1844 55.3078 45.5383C54.9385 45.9075 54.5693 46.2767 54.077 46.5229C54.077 46.5229 54.077 46.5229 53.9539 46.5229C53.8308 46.5229 53.5847 46.646 53.4616 46.646C53.3385 46.646 53.0924 46.646 52.9693 46.5229C52.9693 46.5229 52.9693 46.5229 52.8462 46.5229C52.3539 46.2767 51.8616 45.9075 51.6155 45.5383C50.3847 44.1844 49.4001 41.7229 49.4001 40.1229C49.4001 37.7844 51.2462 36.0614 53.4616 36.0614Z" fill="black" fill-opacity="0.8"/>
<path d="M67.3692 45.9075C68.4769 42.4613 69.0923 38.769 69.0923 35.0767C69.0923 16.2459 53.8308 0.861328 34.8769 0.861328C15.9231 0.861328 0.907715 16.2459 0.907715 35.0767C0.907715 38.769 1.5231 42.3382 2.63079 45.9075C2.75387 46.2767 3.1231 46.5229 3.49233 46.5229C3.61541 46.5229 3.73848 46.5229 3.73848 46.5229C4.23079 46.3998 4.47695 45.7844 4.35387 45.4152C3.24618 42.0921 2.75387 38.6459 2.75387 35.1998C2.75387 29.7844 4.10771 24.6152 6.44618 20.0613H18.2616C17.4 23.1382 16.9077 26.5844 16.5385 30.1536C16.5385 30.6459 16.9077 31.1382 17.4 31.1382C17.8923 31.1382 18.3846 30.769 18.3846 30.2767C18.6308 26.5844 19.2462 23.1383 20.2308 19.9383H34.1385V27.6921C34.1385 28.1844 34.5077 28.6767 35.1231 28.6767C35.7385 28.6767 36.1077 28.3075 36.1077 27.6921V19.9383H50.0154C50.8769 23.1383 51.4923 26.5844 51.8616 30.2767C51.8616 30.769 52.3539 31.1382 52.7231 31.1382C52.7231 31.1382 52.7231 31.1382 52.8462 31.1382C53.3385 31.1382 53.7077 30.6459 53.7077 30.1536C53.4616 26.5844 52.8462 23.1382 51.9846 20.0613H63.8C66.1385 24.6152 67.4923 29.6613 67.4923 35.1998C67.4923 38.6459 66.8769 42.0921 65.8923 45.4152C65.7692 45.9075 66.0154 46.3998 66.5077 46.5229C66.7539 46.6459 67.2462 46.3998 67.3692 45.9075ZM7.55387 18.2152C11.9846 10.9536 19.2462 5.66133 27.7385 3.6921C23.9231 6.64594 20.8462 11.6921 18.8769 18.2152H7.55387ZM20.7231 18.2152C23.5539 9.47671 28.4769 3.56902 34.0154 2.95364V18.2152H20.7231ZM35.9846 18.2152V2.83056C41.5231 3.44594 46.4462 9.35364 49.2769 18.0921H35.9846V18.2152ZM51.2462 18.2152C49.2769 11.6921 46.0769 6.64594 42.3846 3.6921C50.8769 5.66133 58.1385 10.9536 62.5693 18.2152H51.2462Z" fill="black" fill-opacity="0.8"/>
</svg>
